# xmcd
#
# Track frame offsets: 
#        150
#        10040
#        21987
#        32765
#        44750
#        57322
#        68462
#        78882
#        91965
#        103870
#        113602
#        125987
#        136717
#        147177
#        157832
#        169565
#        181072
#        192152
#        201120
#        210915
#        222960
#        233812
#        244807
#        257085
#
# Disc length: 3594 seconds
#
# Revision: 0
# Processed by: cddbd v1.4PL0 Copyright (c) Steve Scherf et al.
# Submitted via: ExactAudioCopy v0.90b3
#
DISCID=410e0818
DTITLE=Gene Pitney - George Jones and Gene Pitney-It's Country Time Agai
DTITLE=n
DYEAR=1900
DGENRE=Country
TTITLE0=I've Got Five Dollars And It's Saturday Night
TTITLE1=I Really Don't Want To Know (Gene Pitney Solo)
TTITLE2=I'm A Fool To Care
TTITLE3=My Shoes Keep Walking Back To You
TTITLE4=Sweeter Than The Flowers
TTITLE5=Wearing My Heart Away
TTITLE6=One Has My Name
TTITLE7=Things Have Gone To Pieces (George Jones Solo)
TTITLE8=I've Got A New Heartache
TTITLE9=Don't Rob Another Man's Castle
TTITLE10=Wreck On The Highway
TTITLE11=Born To Lose (Gene Pitney Solo)
TTITLE12=Mockin' Bird Hill
TTITLE13=As Long As I Live
TTITLE14=My Favorite Lies (George Jones Solo)
TTITLE15=Y'All Come
TTITLE16=Some Day (You'll Want Me To Want You)
TTITLE17=Love Bug (George Jones Solo)
TTITLE18=Big Job
TTITLE19=Your Old Standby
TTITLE20=Why Baby Why
TTITLE21=That's All It Took
TTITLE22=Louisiana Man
TTITLE23=I Can't Stop Loving You (Gene Pitney Solo)
EXTD=
EXTT0=
EXTT1=
EXTT2=
EXTT3=
EXTT4=
EXTT5=
EXTT6=
EXTT7=
EXTT8=
EXTT9=
EXTT10=
EXTT11=
EXTT12=
EXTT13=
EXTT14=
EXTT15=
EXTT16=
EXTT17=
EXTT18=
EXTT19=
EXTT20=
EXTT21=
EXTT22=
EXTT23=
PLAYORDER=
